<?xml version="1.0" ?><svg id="Layer_1" style="enable-background:new 0 0 512 512;" version="1.1" viewBox="0 0 512 512" xml:space="preserve" xmlns="http://www.w3.org/2000/svg" xmlns:xlink="http://www.w3.org/1999/xlink"><style type="text/css">
	.st0{fill:#7DBAE7;}
	.st1{fill:#FFFFFF;}
</style><g id="XMLID_4774_"><circle class="st0" cx="256" cy="256" id="XMLID_4750_" r="256"/><g id="XMLID_5256_"><g id="XMLID_5258_"><g id="XMLID_5262_"><path class="st1" d="M212.8,364.5h-64.1v-51.3l64.1-23V364.5z M155,358.3h51.6v-59.3L155,317.6V358.3z" id="XMLID_5791_"/></g><g id="XMLID_5261_"><path class="st1" d="M284.6,364.5h-64.1v-77.1l64.1-23V364.5z M226.8,358.3h51.6v-85.1l-51.6,18.6V358.3z" id="XMLID_5788_"/></g><g id="XMLID_5260_"><path class="st1" d="M356.5,364.5h-64.1V261.6l64.1-23V364.5z M298.6,358.3h51.6V247.4L298.6,266V358.3z" id="XMLID_5785_"/></g><g id="XMLID_5259_"><path class="st1" d="M136.4,313.9L126,284.9l217.1-78l-9-25l81.9,14.8l-53.8,63.5l-8.7-24.3L136.4,313.9z       M134,288.7l6.2,17.2l217-78l7.2,20.1l39.9-47l-60.7-11l7.4,20.7L134,288.7z" id="XMLID_5782_"/></g></g><g id="XMLID_5257_"><path class="st1" d="M413.3,400H96V112h27.3v260.7h289.9V400z M102.2,393.8H407v-14.9H117.1V118.2h-14.9V393.8z     " id="XMLID_5779_"/></g></g></g></svg>